<?xml version="1.0" standalone="no"?>
<!DOCTYPE svg PUBLIC "-//W3C//DTD SVG 20010904//EN"
 "http://www.w3.org/TR/2001/REC-SVG-20010904/DTD/svg10.dtd">
<svg version="1.0" xmlns="http://www.w3.org/2000/svg"
 width="700.000000pt" height="700.000000pt" viewBox="0 0 700.000000 700.000000"
 preserveAspectRatio="xMidYMid meet">
<metadata>
Created by potrace 1.14, written by Peter Selinger 2001-2017
</metadata>
<g transform="translate(0.000000,700.000000) scale(0.100000,-0.100000)"
fill="#000000" stroke="none">
<path d="M2149 5135 c-245 -90 -520 -526 -790 -1249 -30 -83 -36 -91 -83 -121
-264 -168 -493 -253 -706 -260 -131 -5 -178 7 -267 68 -46 31 -57 34 -85 26
-37 -10 -42 -14 -61 -52 -20 -38 -10 -73 32 -114 80 -77 198 -116 356 -116
180 0 353 44 563 143 74 36 122 54 122 46 0 -7 -9 -39 -19 -72 -35 -108 -116
-445 -125 -521 -2 -16 -9 -57 -16 -91 -31 -171 -43 -424 -27 -564 17 -149 73
-285 143 -347 81 -71 179 -79 293 -22 159 79 261 178 573 556 5 6 47 58 95
118 47 59 87 106 89 105 1 -2 -2 -25 -7 -53 -65 -349 14 -631 198 -701 161
-62 355 87 470 360 59 140 78 243 77 427 l-1 126 45 27 c25 15 103 70 173 122
69 52 129 94 131 94 3 0 1 -26 -3 -57 -7 -53 -17 -121 -25 -183 -22 -167 -22
-402 1 -520 53 -272 201 -367 370 -238 112 85 269 423 335 720 l13 56 54 -29
c29 -16 82 -34 116 -41 l63 -12 -8 -50 c-13 -76 -12 -235 1 -284 42 -153 122
-236 256 -267 72 -16 155 -10 269 21 55 15 351 122 401 144 11 5 67 27 125 49
284 106 504 160 790 196 71 9 248 6 325 -4 129 -19 148 -24 315 -86 53 -20 89
-11 116 30 53 81 -10 141 -210 199 -134 39 -222 50 -396 50 -146 0 -221 -6
-345 -29 -44 -8 -94 -17 -112 -20 -153 -25 -601 -171 -828 -270 -57 -25 -212
-76 -270 -90 -75 -17 -156 -13 -190 9 -44 29 -68 98 -69 196 0 83 6 146 22
204 6 21 17 32 36 37 76 21 206 104 275 178 143 152 189 370 95 452 -88 77
-196 56 -313 -59 -93 -93 -160 -200 -212 -342 -27 -75 -27 -75 -64 -75 -45 -1
-101 23 -167 72 -69 50 -131 56 -176 18 -43 -36 -46 -43 -86 -192 -61 -222
-98 -326 -171 -477 -52 -108 -120 -191 -136 -166 -64 100 -72 431 -19 760 34
209 -1 313 -110 324 -62 6 -116 -22 -275 -142 -71 -53 -142 -105 -158 -115
-27 -18 -27 -17 -38 10 -37 99 -106 181 -171 208 -76 30 -173 17 -231 -31 -17
-14 -42 -24 -60 -24 -19 0 -43 -9 -58 -23 -21 -18 -107 -125 -229 -287 -38
-49 -323 -403 -403 -499 -201 -241 -400 -394 -454 -350 -19 17 -57 99 -74 164
-21 77 -18 411 5 531 2 11 7 41 10 68 4 27 9 52 11 55 1 3 6 22 9 41 22 139
90 406 158 617 l51 162 96 72 c52 40 108 84 125 98 352 306 590 608 688 873
25 68 31 99 32 173 1 107 -2 120 -36 173 -48 72 -149 100 -239 67z m92 -180
c1 -8 2 -25 3 -37 9 -115 -143 -394 -324 -598 -79 -88 -269 -276 -298 -294
-15 -9 -13 -4 63 169 173 396 362 680 500 753 48 26 55 26 56 7z m2440 -1747
c-30 -62 -78 -120 -132 -159 -26 -19 -28 -19 -22 -2 13 33 46 88 82 133 40 51
93 101 99 96 2 -3 -10 -33 -27 -68z m-1969 -163 c15 -22 32 -54 37 -72 9 -31
8 -33 -25 -39 -102 -19 -168 66 -104 134 28 30 60 22 92 -23z m-220 -223 c6
-15 63 -49 103 -62 39 -13 167 -16 186 -4 15 9 10 -175 -7 -251 -20 -91 -23
-101 -47 -155 -6 -14 -11 -27 -11 -30 -3 -20 -84 -144 -117 -177 -54 -56 -90
-68 -124 -41 -94 74 -110 308 -39 593 30 120 35 135 44 135 4 0 10 -4 12 -8z"/>
<path d="M6290 3904 c-136 -36 -239 -137 -330 -325 -22 -46 -44 -87 -48 -91
-5 -5 -24 5 -43 22 -173 154 -343 163 -410 22 -51 -109 7 -295 128 -415 130
-128 309 -221 484 -251 66 -11 121 57 98 122 -12 35 -36 50 -122 74 -219 60
-395 206 -421 350 -2 14 -2 29 1 32 10 10 58 -22 153 -103 95 -82 134 -100
182 -86 35 11 77 55 100 105 77 173 115 238 173 297 53 53 68 62 110 68 113
17 175 -78 128 -197 -21 -53 -69 -128 -153 -238 -53 -70 -65 -91 -65 -122 0
-63 65 -109 122 -87 46 17 235 286 274 388 96 257 -107 501 -361 435z"/>
</g>
</svg>
