<?xml version="1.0" standalone="no"?>
<!DOCTYPE svg PUBLIC "-//W3C//DTD SVG 20010904//EN"
 "http://www.w3.org/TR/2001/REC-SVG-20010904/DTD/svg10.dtd">
<svg width="700" height="700" viewBox="0 0 901 225" version="1.1" xmlns="http://www.w3.org/2000/svg" xmlns:xlink="http://www.w3.org/1999/xlink">
    <g id="Page-2" stroke="none" stroke-width="1" fill="none" fill-rule="evenodd">
        <g id="Group-5" transform="translate(0.000000, 0.000000)">
            <g id="Group-2">
                <g id="Layer-2" fill="#FFFFFF" fill-rule="nonzero">
                    <path d="M51.9830322,204.461851 C51.9830322,199.113238 51.9830322,190.600522 51.9830322,178.923701 C51.9830322,153.385552 51.1833649,153.385552 77.9743858,153.385552 C103.965739,153.385552 155.948446,153.385552 155.948446,153.385552 L155.948446,102.309254 C155.948446,102.309254 103.965739,102.309254 77.9743858,102.309254 C51.9830322,102.309254 51.9830322,102.309254 51.9830322,76.7711044 C51.9830322,51.2329552 51.9830322,51.2329552 77.9743858,51.2329552 C103.965739,51.2329552 157.046148,50.7383663 157.046148,50.7383663 L157.71066,0.191558767 C157.71066,0.191558767 92.0365744,-0.357511442 46.788227,0.403525406 C1.53987963,1.16456225 1.44717714,49.0264591 1.44717714,49.0264591 C0.48239238,141.267659 0,194.778657 0,209.559454 C0,214.00195 0,217.669789 1.44717714,218.458382 C5.64128554,220.744008 51.9830322,212.48477 51.9830322,204.461851 Z" id="Path"></path>
                </g>
                <g id="Layer-3" transform="translate(186.931153, 46.232955)" fill-rule="nonzero">
                    <path d="M51.9827071,0 C0,0 0,51.0762985 0,51.0762985 C0,51.0762985 0,51.0762985 0,102.152597 C0,153.228896 51.9827071,153.228896 51.9827071,153.228896 L103.965414,153.228896 L103.965414,178.767045 L155.948121,153.228896 C155.948121,153.228896 155.948121,108.46733 155.948121,65.4415075 C155.948121,67.0376418 155.948121,63.8453732 155.948121,51.0762985 C155.948121,0 103.965414,0 103.965414,0 C103.965414,0 103.965414,0 51.9827071,0 Z M77.9740606,51.0762985 C92.3290852,51.0762985 103.965414,62.509728 103.965414,76.6144478 C103.965414,90.7191676 92.3290852,102.152597 77.9740606,102.152597 C63.6190361,102.152597 51.9827071,90.7191676 51.9827071,76.6144478 C51.9827071,62.509728 63.6190361,51.0762985 77.9740606,51.0762985 Z" id="Shape" stroke="#000000" stroke-width="0.5" fill="#000000" opacity="0" stroke-linecap="round" stroke-linejoin="round"></path>
                    <path d="M77.9740606,0 C34.9098533,0 0,34.3011395 0,76.6144478 C0,118.927756 34.9098533,153.228896 77.9740606,153.228896 C87.1048231,153.228896 95.8231895,151.619992 103.965414,148.786109 L103.965414,153.228896 L155.948121,153.228896 L155.948121,76.6144478 C155.948121,34.3011395 121.038268,0 77.9740606,0 Z M77.9740606,51.0762985 C92.3290852,51.0762985 103.965414,62.509728 103.965414,76.6144478 C103.965414,90.7191676 92.3290852,102.152597 77.9740606,102.152597 C63.6190361,102.152597 51.9827071,90.7191676 51.9827071,76.6144478 C51.9827071,62.509728 63.6190361,51.0762985 77.9740606,51.0762985 Z" id="Shape" fill="#FFFFFF"></path>
                </g>
                <g id="Layer-4" transform="translate(379.861982, 19.694806)" fill="#FFFFFF" fill-rule="nonzero">
                    <path d="M0,178.767045 L0,0 L0,0 C0,0 25.9913535,25.5381493 51.9827071,25.5381493 C78.7737279,25.5381493 103.965414,25.5381493 103.965414,25.5381493 C103.965414,25.5381493 155.948121,25.5381493 155.948121,76.6144478 C155.948121,127.690746 155.948121,178.767045 155.948121,178.767045 L103.965414,178.767045 L103.965414,102.152597 C103.965414,102.152597 103.965414,76.6144478 77.9740606,76.6144478 C51.9827071,76.6144478 51.9827071,102.152597 51.9827071,102.152597 L51.9827071,178.767045 L51.9827071,178.767045 L0,178.767045 Z" id="Path"></path>
                </g>
                <g id="Layer-7" transform="translate(744.723639, 46.232955)" fill="#FFFFFF" fill-rule="nonzero">
                    <path d="M56.1066685,51.9497032 C56.1066685,44.5810959 67.1789851,37.0805415 79.5248781,37.0805415 C91.870771,37.0805415 101.886106,43.0547658 101.886106,50.4233732 C101.886106,57.7928318 92.6505116,58.8118039 80.3046187,58.8118039 C67.9500619,58.8118039 56.1066685,59.3191618 56.1066685,51.9497032 Z M77.9740606,0 C34.9063878,0 0,34.3011395 0,76.6144478 C0,118.927756 34.9063878,153.228896 77.9740606,153.228896 C113.842129,153.228896 153.316162,145.160131 153.316162,139.725381 C153.316162,134.290631 147.293001,99.0292814 134.739177,102.028311 C127.270995,103.813428 107.968083,110.4891 92.754477,109.755304 C82.6784956,109.269228 61.9547231,106.281265 57.9520546,99.4753477 C55.3182641,94.9908487 79.3429386,91.7560165 94.2619755,89.7163696 C106.044722,88.1057637 127.097719,86.4015179 145.334985,79.9097203 C153.314331,77.0690268 157.048422,76.220309 155.948121,58.8177628 C153.842822,25.5381493 116.900444,0 77.9740606,0 Z" id="Shape"></path>
                </g>
                <path d="M662.933836,98.7365949 C657.969297,88.0896448 650.522488,84.5406614 642.36646,84.5406614 C634.919651,84.5406614 627.472843,88.0896448 627.472843,94.0046171 C627.472843,99.6238407 631.728162,102.877075 639.88419,105.243064 L663.288446,112.045283 C689.52958,120.030495 716.125325,128.015708 716.125325,158.773563 C716.125325,189.827168 678.891283,207.572085 640.59341,207.572085 C606.196247,207.572085 573.926744,190.714414 566.125325,163.80129 L610.096956,152.267094 C614.706885,160.843804 622.862914,170.603508 640.59341,170.603508 C652.650148,170.603508 660.451566,164.097039 660.451566,158.182066 C660.451566,155.22458 657.614687,151.379848 648.749439,148.422362 C642.839273,146.450705 635.628871,144.281881 627.118233,141.915892 C590.2388,130.677445 572.862914,115.002769 572.862914,93.1173712 C572.862914,64.4297557 604.777807,47.5720847 639.88419,47.5720847 C675.699793,47.5720847 699.458658,63.8382585 710.096956,88.3853934 L662.933836,98.7365949 Z" id="Path" fill="#FFFFFF"></path>
            </g>
            <g id="Group" transform="translate(231.000000, 90.000000)" fill="#2081E2" fill-rule="nonzero">
                <path d="M32.4994583,0 C14.5507092,0 0,14.5511425 0,32.4994583 C0,50.4477741 14.5507092,65 32.4994583,65 C50.4482075,65 65,50.4477741 65,32.4994583 C65,14.5511425 50.4482075,0 32.4994583,0 Z M48.5859264,36.0576176 C44.9068651,40.1453191 34.058401,48.9752829 33.5979766,49.3488225 C33.2753546,49.6112102 32.8859981,49.7444624 32.4994583,49.7258288 C32.4877581,49.7264788 32.4751913,49.7264788 32.462841,49.7264788 C32.0890848,49.7264788 31.7131619,49.60276 31.4007233,49.3488225 C30.9405157,48.9750663 20.0931349,40.1451024 16.4151569,36.058051 C12.3824897,31.5753596 12.4089235,25.1281188 16.4764746,21.0605677 C20.6280938,16.9082985 27.3845231,16.9082985 31.5363589,21.0605677 L32.5001083,22.0243171 L33.4645077,21.0599177 C37.6161269,16.9082985 44.3719062,16.9087318 48.5248254,21.0599177 C52.5915099,25.1283355 52.6179436,31.5755763 48.5859264,36.0576176 Z" id="Shape"></path>
            </g>
        </g>
    </g>
</svg>
